# xmcd CD database file
#
# Track frame offsets:
#	150
#	16192
#	36600
#	51555
#	71052
#	89042
#	107700
#	126375
#	142197
#	157675
#
# Disc length: 2398 seconds
#
# Revision: 0
# Processed by: cddbd v1.5.1PL2 Copyright (c) Steve Scherf et al.
# Submitted via: CDex 1.51
#
DISCID=96095c0a
DTITLE=早見優 - YU'S GOODS
DYEAR=1986
DGENRE=JPop
TTITLE0=I・KI・NA・RI ROCK'N' ROLLER
TTITLE1=BORN TO LOVED
TTITLE2=Manaysu no SNIPER
TTITLE3=SEIREKI 1986
TTITLE4=THE LETTER
TTITLE5=PARTY GIRL
TTITLE6=SOMEBODY TO LOVE
TTITLE7=News ni naranai Koi
TTITLE8=HUSH!
TTITLE9=REMEMBER_(PART?)
EXTD=YEAR: 1986
EXTT0=
EXTT1=
EXTT2=
EXTT3=
EXTT4=
EXTT5=
EXTT6=
EXTT7=
EXTT8=
EXTT9=
PLAYORDER=
